<svg xmlns="http://www.w3.org/2000/svg" version="1.1" xmlns:xlink="http://www.w3.org/1999/xlink" xmlns:svgjs="http://svgjs.com/svgjs" width="1440" height="560" preserveAspectRatio="none" viewBox="0 0 1440 560"><g mask="url(&quot;#SvgjsMask1005&quot;)" fill="none"><rect width="1440" height="560" x="0" y="0" fill="url(#SvgjsLinearGradient1006)"></rect><path d="M426.58 585C545.91 555.92 506.3 235.32 770.31 233.97 1034.32 232.62 1283.16 356.68 1457.76 357.17" stroke="rgba(51,121,194,0.58)" stroke-width="2"></path><path d="M366.56 600C489.15 572.4 452.43 248.9 725.59 248.24 998.75 247.58 1259.28 415.13 1443.64 416.24" stroke="rgba(51,121,194,0.58)" stroke-width="2"></path><path d="M309.55 584.48C423.86 583.23 528.8 457.93 748.96 457.9 969.11 457.87 968.66 527.9 1188.36 527.9 1408.07 527.9 1516.53 458.12 1627.77 457.9" stroke="rgba(51,121,194,0.58)" stroke-width="2"></path><path d="M162.46 627.7C280.4 622.74 373.5 426.76 589.57 426.38 805.63 426 803.12 496.38 1016.67 496.38 1230.23 496.38 1335.58 426.61 1443.78 426.38" stroke="rgba(51,121,194,0.58)" stroke-width="2"></path><path d="M610.62 631.93C724.74 628.44 801.31 464.43 1032.04 455.93 1262.77 447.43 1336.78 259.43 1453.46 254.33" stroke="rgba(51,121,194,0.58)" stroke-width="2"></path></g><defs><mask id="SvgjsMask1005"><rect width="1440" height="560" fill="#ffffff"></rect></mask><linearGradient x1="15.28%" y1="-39.29%" x2="84.72%" y2="139.29%" gradientUnits="userSpaceOnUse" id="SvgjsLinearGradient1006"><stop stop-color="#0e2a47" offset="0"></stop><stop stop-color="#00459e" offset="1"></stop></linearGradient></defs></svg>