<svg xmlns="http://www.w3.org/2000/svg" version="1.1" xmlns:xlink="http://www.w3.org/1999/xlink" xmlns:svgjs="http://svgjs.com/svgjs" width="1440" height="250" preserveAspectRatio="none" viewBox="0 0 1440 250"><g mask="url(&quot;#SvgjsMask1003&quot;)" fill="none"><rect width="1440" height="250" x="0" y="0" fill="rgba(48, 0, 133, 1)"></rect><path d="M13 250L263 0L545 0L295 250z" fill="url(#SvgjsLinearGradient1004)"></path><path d="M267.6 250L517.6 0L700.6 0L450.6 250z" fill="url(#SvgjsLinearGradient1004)"></path><path d="M503.20000000000005 250L753.2 0L894.2 0L644.2 250z" fill="url(#SvgjsLinearGradient1004)"></path><path d="M755.8000000000001 250L1005.8000000000001 0L1124.3000000000002 0L874.3000000000001 250z" fill="url(#SvgjsLinearGradient1004)"></path><path d="M1424 250L1174 0L992.5 0L1242.5 250z" fill="url(#SvgjsLinearGradient1005)"></path><path d="M1179.4 250L929.4000000000001 0L629.4000000000001 0L879.4000000000001 250z" fill="url(#SvgjsLinearGradient1005)"></path><path d="M919.8 250L669.8 0L368.29999999999995 0L618.3 250z" fill="url(#SvgjsLinearGradient1005)"></path><path d="M696.1999999999999 250L446.19999999999993 0L309.69999999999993 0L559.6999999999999 250z" fill="url(#SvgjsLinearGradient1005)"></path><path d="M1265.2202040641987 250L1440 75.22020406419864L1440 250z" fill="url(#SvgjsLinearGradient1004)"></path><path d="M0 250L174.77979593580136 250L 0 75.22020406419864z" fill="url(#SvgjsLinearGradient1005)"></path></g><defs><mask id="SvgjsMask1003"><rect width="1440" height="250" fill="#ffffff"></rect></mask><linearGradient x1="0%" y1="100%" x2="100%" y2="0%" id="SvgjsLinearGradient1004"><stop stop-color="rgba(15, 70, 185, 0.2)" offset="0"></stop><stop stop-opacity="0" stop-color="rgba(15, 70, 185, 0.2)" offset="0.66"></stop></linearGradient><linearGradient x1="100%" y1="100%" x2="0%" y2="0%" id="SvgjsLinearGradient1005"><stop stop-color="rgba(15, 70, 185, 0.2)" offset="0"></stop><stop stop-opacity="0" stop-color="rgba(15, 70, 185, 0.2)" offset="0.66"></stop></linearGradient></defs></svg>