<?xml version="1.0" encoding="utf-8"?>
<svg viewBox="0 0 500 500" xmlns="http://www.w3.org/2000/svg">
  <defs>
    <linearGradient id="g2" x1="0" y1="0" x2="0" y2="0" gradientUnits="userSpaceOnUse">
      <stop offset="0" stop-color="#290a59"/>
      <stop offset="1" stop-color="#ff7c00"/>
    </linearGradient>
    <linearGradient id="g4" x1="0" y1="0" x2="0" y2="0" gradientUnits="userSpaceOnUse">
      <stop offset="0" stop-color="#290a59"/>
      <stop offset="1" stop-color="#ff7c00"/>
    </linearGradient>
    <linearGradient id="g6" x1="0" y1="0" x2="0" y2="0" gradientUnits="userSpaceOnUse">
      <stop offset="0" stop-color="#290a59"/>
      <stop offset="1" stop-color="#ff7c00"/>
    </linearGradient>
    <clipPath clipPathUnits="userSpaceOnUse" id="cp1">
      <path d="m412.26 373.3c-0.5 0.16-1.5 0.22-2.73 0.19-2.99-0.03-7.41-0.47-9.58-0.81q-3.36-0.52-4.23-1.37l-55.29-0.19-6.54-0.02q-0.83 4.12-5.83 4.83c-3.83 0.53-13.84-1.19-15.22-2.63-4.37-4.59-2.98-15.77 0.35-17.3q4.87-15.21 9.87-26.25c5.34-11.83 20.54-25.51 40.18-27.77 19.63-2.25 38.6 19.84 45.07 30.88q6.45 11.06 9.78 21.06 2.6 2.47 3.06 5.14c0.98 5.58 0.07 11.33-8.89 14.24z"/>
    </clipPath>
    <clipPath clipPathUnits="userSpaceOnUse" id="cp2">
      <path d="m295.82 329.77l-2.88 3.87-0.53 0.71q-4.45 44.96-13.54 63.12-0.67 1.36-1.38 2.5-10.02 16.09-23.76-69 4.59-16.57 12.52-19.63l3.33-9.36q24.38 19.47 26.24 27.79z"/>
    </clipPath>
    <clipPath clipPathUnits="userSpaceOnUse" id="cp3">
      <path d="m276.71 362.33c4.36 12.81 7.8 28.99 8.3 48.69q0.21 6.99-0.14 14.59h-107.69l-0.1-50.5q12.23-19.64 39.68-25.5 21.25-4.53 39.14-24.77 1.55 1.53 3.93 4.66"/>
    </clipPath>
    <clipPath clipPathUnits="userSpaceOnUse" id="cp4">
      <path d="m194.13 390.11c3.4 7.52 5.53 18.79 4.07 35.66l-17.4 5.17-22.51 4.28q-11.7-23.15 1.53-35.45 3.54-12.51 17.26-24.66 1.58 0.14 3.89 1.12"/>
    </clipPath>
    <style>
		.s0 { fill: url(#g1) } 
		.s1 { fill: url(#g2) } 
		.s2 { fill: #0000ff } 
		.s3 { opacity: .7;fill: #ffffff } 
		.s4 { fill: none;stroke: #263238;stroke-linecap: round;stroke-linejoin: round;stroke-width: 1.1 } 
		.s5 { fill: #ffffff } 
		.s6 { fill: #ffffff;stroke: #263238;stroke-linecap: round;stroke-linejoin: round;stroke-width: 1.1 } 
		.s7 { opacity: .4;fill: url(#g3) } 
		.s8 { fill: url(#g4) } 
		.s9 { opacity: .4;fill: #92e3a9 } 
		.s10 { opacity: .4;fill: #ff0000 } 
		.s11 { fill: #0000ff;stroke: #263238;stroke-linecap: round;stroke-linejoin: round;stroke-width: 1.1 } 
		.s12 { fill: #bfbfbf;stroke: #263238;stroke-linecap: round;stroke-linejoin: round;stroke-width: 1.1 } 
		.s13 { fill: #263238 } 
		.s14 { fill: #263138;stroke: #263238;stroke-linecap: round;stroke-linejoin: round;stroke-width: 1.1 } 
		.s15 { fill: #92e3a9;stroke: #263238;stroke-linecap: round;stroke-linejoin: round;stroke-width: 1.1 } 
		.s16 { opacity: .4;fill: url(#g5) } 
		.s17 { fill: url(#g6) } 
		.s18 { fill: none;stroke: #ffffff;stroke-linecap: round;stroke-linejoin: round;stroke-width: 1.1 } 
	</style>
  </defs>
  <g id="Background Simple" style="" transform="matrix(0.939882, 0, 0, 0.989233, 0.007762, -27.706718)">
    <g id="&lt;Group&gt;">
      <path id="&lt;Path&gt;" class="s0" d="M 109.762 88.036 C 109.939 87.922 110.117 87.778 110.295 87.605 C 157.676 50.324 220.673 48.685 266.456 88.813 C 290.413 109.784 332.825 105.728 363.171 113.322 C 467.87 139.47 449.77 263.653 398.041 323.716 C 351.37 377.911 250.308 390.165 182.341 363.5 C 122.627 340.027 86.39 347.396 71.395 292.683 C 69.916 287.16 62.972 221.942 62.026 216.361 C 54.129 169.761 69.213 120.312 109.762 88.036 Z" style="fill: rgb(255, 174, 0);"/>
      <path id="Shape 5" class="s1" d="m-171 466"/>
      <path id="Shape 4" class="s2" d="m-288 284"/>
      <path id="&lt;Path&gt;" class="s3" d="M 77.336 92.695 C 77.53 92.573 77.725 92.419 77.919 92.234 C 130.005 52.318 298.37 7.331 348.698 50.295 C 375.033 72.746 387.357 105.139 420.782 113.012 C 532.136 139.238 534.003 501.875 438.749 490.581 C 359.469 481.18 351.625 539.79 276.914 511.241 C 211.275 486.108 43.205 510.501 26.721 451.921 C 25.096 446.008 -22.837 280.138 21.296 256.432 C 66.605 232.096 32.762 127.252 77.336 92.695 Z" style="fill: rgb(255, 242, 0);"/>
    </g>
  </g>
  <g id="Windows">
    <g id="&lt;Group&gt;">
      <g id="&lt;Group&gt;">
        <g id="&lt;Group&gt;">
          <path id="&lt;Path&gt;" class="s4" d="m302.5 119v-23h30.4"/>
          <path id="&lt;Path&gt;" class="s4" d="m339.2 96h83.4v88.5"/>
          <path id="&lt;Path&gt;" class="s4" d="m422.6 202.3v70.7h-10"/>
          <path id="&lt;Path&gt;" class="s4" d="m390.5 273h13.7"/>
          <path id="&lt;Path&gt;" class="s4" d="m384.8 273h-82.3v-135.2"/>
        </g>
        <g id="&lt;Group&gt;">
          <g id="&lt;Group&gt;">
            <path id="&lt;Path&gt;" class="s4" d="m415.1 147.9v7.3h-12.7"/>
            <path id="&lt;Path&gt;" class="s4" d="m399.8 155.2h-34.8v-25"/>
            <path id="&lt;Path&gt;" class="s4" d="m365 125.3v-20.2h4.2"/>
            <path id="&lt;Path&gt;" class="s4" d="m378.4 105.1h-5.7"/>
            <path id="&lt;Path&gt;" class="s4" d="m380.8 105.1h34.3v37.7"/>
          </g>
          <g id="&lt;Group&gt;">
            <path id="&lt;Path&gt;" class="s4" d="m415.1 256.7v7.2h-12.7"/>
            <path id="&lt;Path&gt;" class="s4" d="m399.8 263.9h-34.8v-25"/>
            <path id="&lt;Path&gt;" class="s4" d="m365 234.1v-20.3h4.2"/>
            <path id="&lt;Path&gt;" class="s4" d="m378.4 213.8h-5.7"/>
            <path id="&lt;Path&gt;" class="s4" d="m380.8 213.8h34.3v37.8"/>
          </g>
          <g id="&lt;Group&gt;">
            <path id="&lt;Path&gt;" class="s4" d="m360.1 202.2v7.3h-12.7"/>
            <path id="&lt;Path&gt;" class="s4" d="m344.8 209.5h-34.8v-25.1"/>
            <path id="&lt;Path&gt;" class="s4" d="m310 179.6v-20.2h4.2"/>
            <path id="&lt;Path&gt;" class="s4" d="m323.4 159.4h-5.7"/>
            <path id="&lt;Path&gt;" class="s4" d="m325.8 159.4h34.3v37.7"/>
          </g>
          <g id="&lt;Group&gt;">
            <path id="&lt;Path&gt;" class="s4" d="m360.1 256.4v7.3h-12.7"/>
            <path id="&lt;Path&gt;" class="s4" d="m344.8 263.7h-34.8v-25"/>
            <path id="&lt;Path&gt;" class="s4" d="m310 233.8v-20.2h4.2"/>
            <path id="&lt;Path&gt;" class="s4" d="m323.4 213.6h-5.7"/>
            <path id="&lt;Path&gt;" class="s4" d="m325.8 213.6h34.3v37.7"/>
          </g>
          <g id="&lt;Group&gt;">
            <path id="&lt;Path&gt;" class="s4" d="m372.5 209.6h-7.5v-12.7"/>
            <path id="&lt;Path&gt;" class="s4" d="m365 194.3v-34.8h25.3"/>
            <path id="&lt;Path&gt;" class="s4" d="m395.1 159.5h20v4.1"/>
            <path id="&lt;Path&gt;" class="s4" d="m415.1 172.9v-5.7"/>
            <path id="&lt;Path&gt;" class="s4" d="m415.1 175.2v34.4h-37.5"/>
          </g>
          <g id="&lt;Group&gt;">
            <path id="&lt;Path&gt;" class="s4" d="m317.5 155.2h-7.5v-12.7"/>
            <path id="&lt;Path&gt;" class="s4" d="m310 139.9v-34.8h25.3"/>
            <path id="&lt;Path&gt;" class="s4" d="m340.1 105.1h20v4.2"/>
            <path id="&lt;Path&gt;" class="s4" d="m360.1 118.5v-5.7"/>
            <path id="&lt;Path&gt;" class="s4" d="m360.1 120.9v34.3h-37.5"/>
          </g>
        </g>
      </g>
      <g id="&lt;Group&gt;">
        <g id="&lt;Group&gt;">
          <path id="&lt;Path&gt;" class="s4" d="m81.2 119v-23h30.4"/>
          <path id="&lt;Path&gt;" class="s4" d="m117.9 96h83.5v88.5"/>
          <path id="&lt;Path&gt;" class="s4" d="m201.4 202.3v70.7h-10"/>
          <path id="&lt;Path&gt;" class="s4" d="m169.2 273h13.7"/>
          <path id="&lt;Path&gt;" class="s4" d="m163.5 273h-82.3v-135.2"/>
        </g>
        <g id="&lt;Group&gt;">
          <g id="&lt;Group&gt;">
            <path id="&lt;Path&gt;" class="s4" d="m193.8 147.9v7.3h-12.7"/>
            <path id="&lt;Path&gt;" class="s4" d="m178.5 155.2h-34.8v-25"/>
            <path id="&lt;Path&gt;" class="s4" d="m143.7 125.3v-20.2h4.2"/>
            <path id="&lt;Path&gt;" class="s4" d="m157.1 105.1h-5.7"/>
            <path id="&lt;Path&gt;" class="s4" d="m159.5 105.1h34.3v37.7"/>
          </g>
          <g id="&lt;Group&gt;">
            <path id="&lt;Path&gt;" class="s4" d="m193.8 256.7v7.2h-12.7"/>
            <path id="&lt;Path&gt;" class="s4" d="m178.5 263.9h-34.8v-25"/>
            <path id="&lt;Path&gt;" class="s4" d="m143.7 234.1v-20.3h4.2"/>
            <path id="&lt;Path&gt;" class="s4" d="m157.1 213.8h-5.7"/>
            <path id="&lt;Path&gt;" class="s4" d="m159.5 213.8h34.3v37.8"/>
          </g>
          <g id="&lt;Group&gt;">
            <path id="&lt;Path&gt;" class="s4" d="m138.8 202.2v7.3h-12.6"/>
            <path id="&lt;Path&gt;" class="s4" d="m123.5 209.5h-34.7v-25.1"/>
            <path id="&lt;Path&gt;" class="s4" d="m88.8 179.6v-20.2h4.1"/>
            <path id="&lt;Path&gt;" class="s4" d="m102.2 159.4h-5.8"/>
            <path id="&lt;Path&gt;" class="s4" d="m104.5 159.4h34.3v37.7"/>
          </g>
          <g id="&lt;Group&gt;">
            <path id="&lt;Path&gt;" class="s4" d="m138.8 256.4v7.3h-12.6"/>
            <path id="&lt;Path&gt;" class="s4" d="m123.5 263.7h-34.7v-25"/>
            <path id="&lt;Path&gt;" class="s4" d="m88.8 233.8v-20.2h4.1"/>
            <path id="&lt;Path&gt;" class="s4" d="m102.2 213.6h-5.8"/>
            <path id="&lt;Path&gt;" class="s4" d="m104.5 213.6h34.3v37.7"/>
          </g>
          <g id="&lt;Group&gt;">
            <path id="&lt;Path&gt;" class="s4" d="m151.2 209.6h-7.5v-12.7"/>
            <path id="&lt;Path&gt;" class="s4" d="m143.7 194.3v-34.8h25.3"/>
            <path id="&lt;Path&gt;" class="s4" d="m173.8 159.5h20v4.1"/>
            <path id="&lt;Path&gt;" class="s4" d="m193.8 172.9v-5.7"/>
            <path id="&lt;Path&gt;" class="s4" d="m193.8 175.2v34.4h-37.5"/>
          </g>
          <g id="&lt;Group&gt;">
            <path id="&lt;Path&gt;" class="s4" d="m96.3 155.2h-7.5v-12.7"/>
            <path id="&lt;Path&gt;" class="s4" d="m88.8 139.9v-34.8h25.2"/>
            <path id="&lt;Path&gt;" class="s4" d="m118.9 105.1h19.9v4.2"/>
            <path id="&lt;Path&gt;" class="s4" d="m138.8 118.5v-5.7"/>
            <path id="&lt;Path&gt;" class="s4" d="m138.8 120.9v34.3h-37.5"/>
          </g>
        </g>
      </g>
      <g id="&lt;Group&gt;">
        <path id="&lt;Path&gt;" class="s4" d="m283.8 53.8c1.9 10.6-1.9 20.9-9.3 27.8"/>
        <path id="&lt;Path&gt;" class="s4" d="m253 28.7c8.1-0.2 15.7 2.8 21.4 8"/>
        <path id="&lt;Path&gt;" class="s4" d="m223.7 64.6c-3-16.6 8-32.5 24.6-35.5"/>
        <path id="&lt;Path&gt;" class="s4" d="m259.1 89.2c-14.3 2.6-28.2-5.3-33.6-18.3"/>
        <path id="&lt;Path&gt;" class="s4" d="m235 39.8c3.7-3.6 8.5-6.1 14-7.1 14.6-2.7 28.6 7.1 31.2 21.7"/>
        <path id="&lt;Path&gt;" class="s4" d="m280.5 62.1c-1.3 11.6-10 21.4-22 23.6-14.6 2.6-28.6-7.1-31.3-21.7-1.1-6.1-0.1-12 2.5-17"/>
        <path id="&lt;Path&gt;" class="s4" d="m251.7 39.1l2 20.1-13.2 8.3"/>
      </g>
    </g>
  </g>
  <g id="Character 1" transform="matrix(1, 0, 0, 1, -1.998667, -23.984009)">
    <g id="&lt;Group&gt;" transform="matrix(1, 0, 0, 1, 0, -27.315132)">
      <g id="&lt;Group&gt;">
        <path id="&lt;Path&gt;" class="s5" d="m450.1 355v60.5h-401.3v-60.5z"/>
        <path id="&lt;Path&gt;" class="s6" d="m450.1 355v44.8"/>
        <path id="&lt;Path&gt;" class="s7" d="m359.1 374.3c-60.2-10.7-142.3 29.2-192.3 30.9-36 1.2-65-3.4-85.3-8.4-19.2-4.7-32.7-22-32.7-41.8h401.3v15.9q-29.4 14.4-91 3.4z" style="paint-order: fill; fill-opacity: 0.96; fill: rgb(155, 213, 199);"/>
        <path id="Shape 7" class="s8" d="m-79 533"/>
        <path id="&lt;Path&gt;" class="s6" d="m48.8 336.7h394.8l10.5 14.4v5.5h-415.9"/>
        <path id="&lt;Path&gt;" class="s6" d="m29.8 351.1h420.1"/>
      </g>
      <g id="&lt;Group&gt;">
        <path id="&lt;Path&gt;" class="s6" d="m169.1 322.4q10.2 4.8 6.3 14l-102.2 0.7q-6-7.6 5.7-16.3c8.9-17.5 24.4-25 42.2-26.7q33.2-3.4 48 28.3z" style="fill: rgb(105, 236, 251);"/>
        <path id="&lt;Path&gt;" class="s9" d="m134.4 297.2q4.8 4.2 0 12.9l-2.1-4.1q-5.5 5-9.1 4.9-3.6-0.1-10.8-4.2l-3.5 2.5q-8.4-9.3 0-12.9 20.7-3.2 25.5 0.9z"/>
        <g id="&lt;Group&gt;">
          <path id="&lt;Path&gt;" class="s11" d="m108.9 300.3l6.5 0.8q2.1 5.7 7.2 8 3-0.7 8.9-10.6 0 1.1 2.9 0.8-3 6.6-8.9 10.3 1.6 1 5.2 7.5-4.5 0.2-8.2-5.6-1.4 3.6-6.2 6.5-0.2-4.6 3-8.9-5.4-1.7-10.4-8.8z" style="fill: rgb(0, 255, 17);"/>
          <path id="Shape 3" class="s11" d="m-279 290"/>
          <path id="&lt;Path&gt;" class="s6" d="m121.7 308q-1.7-3.2-8.5-6.9l-4.3 5.4q-8.1-7.1 0-14c2.2-3.1 20.5-4.9 24.6 0 4.2 4.8 4.1 9.4 2.2 13.8l-3.8-6.1q-6.5 2.1-8.1 7.8"/>
          <path id="&lt;Path&gt;" class="s12" d="m129.7 288.7q-0.4 4.4 0 9-1.9 2.7-7.3 6.4-4.3-1.5-10-7.6c0.5-1.5 0.4-3.6 0.2-5.7-0.3-3.2-1.1-6.4-1.3-7.5q-0.1-0.2-0.1-0.3h19.8q-0.5 1-0.8 2.3c-0.2 1.1-0.4 2.2-0.5 3.4z" style="fill: rgb(255, 204, 153);"/>
        </g>
        <path id="&lt;Path&gt;" class="s13" d="m130.2 285.3c-0.2 1.1-0.4 2.2-0.5 3.4-2.9 3-8.6 6.4-17.1 2.1-0.3-3.2-1.1-6.4-1.3-7.5 5.8-0.1 14.9 1.4 18.9 2z"/>
        <g id="&lt;Group&gt;">
          <path id="&lt;Path&gt;" class="s12" d="m139.6 267.2q2.3-1.2 3 0.1c0.8 1.2-1.1 7.7-1.4 8.4-0.4 0.7-0.6 0.3-1.9 2.5-1.3 2.3-1.9 1.3-1.8 0"/>
          <path id="&lt;Path&gt;" class="s12" d="m105.7 277.3c0 1.3-0.6 2.3-1.8 0-1.2-2.4-1.4-2-1.7-2.7-0.4-0.7-1.9-7.3-1-8.5q0.8-1.2 3 0.1"/>
          <path id="&lt;Path&gt;" class="s12" d="m122.6 245.7c13.8 0.4 16.4 12 16.2 23.3-0.2 18.2-8.5 20.2-17.7 19.9-9.5-0.2-15.8-0.7-16.4-21.5-0.3-11 4.4-22.1 17.9-21.7z" style="fill: rgb(255, 204, 153);"/>
          <path id="&lt;Path&gt;" class="s4" d="m117.8 260.4q-3.5-2.2-7.2 2.1"/>
          <path id="&lt;Path&gt;" class="s4" d="m126.5 260.3q4.2-1.4 7.5 2.8"/>
          <ellipse id="&lt;Path&gt;" class="s13" cx="115" cy="266.9" rx="1.3" ry="2"/>
          <ellipse id="&lt;Path&gt;" class="s13" cx="128.7" cy="267.3" rx="1.3" ry="2"/>
          <path id="&lt;Path&gt;" class="s4" d="m135.6 273.7q1.8-0.8 4.2-5.9"/>
          <path id="&lt;Path&gt;" class="s4" d="m108.2 272.9q-2.7-1.2-3.5-5.5"/>
          <path id="&lt;Path&gt;" class="s14" d="m107 272.2q11.7-3 14.6-3.1 2.9-0.1 15.2 4-2.1 12.1-4.5 14.5c-2.4 2.5-15 3.7-21.5-0.3q-1.7-1-3.8-15.1z"/>
          <path id="&lt;Path&gt;" class="s13" d="m102.8 262.9c0.6-1.5-1.2-0.6-2.3-2.2-1.1-1.6-0.5-4.6 0.3-6.3 0.9-1.6 1.9-2.8 1.3-4.3-0.7-1.4 0.1-4.5 1.8-5.7 1.7-1.2 3.9-1.4 3.6-3.8-0.2-2.3 2.2-2.1 5.3-3.5 3.2-1.4 6.4 0.8 7.8 0.2 1.5-0.7 6.2-1.4 8.2-0.5 2 0.9 1 1.9 3.3 2.9 2.2 1 9.6 1.6 8.9 4.3-0.6 2.8 1 4.9 2.5 7 1.5 2.2 0.3 3.2-1.3 5.3-1.6 2.2 1 3.5 1.1 5.6 0.1 2-2 2-1.7 2.6q0.2 0.5-2.9 7.1c0.3-3.2-2.1-8.1-2.5-9.3q-0.5-1.3 0-6.8-5.2-6.7-15.5-7-10.2-0.4-12.5 6 0.6 3.1-1.1 6.8-1.8 3.6-2.3 8.5-2.6-5.4-2-6.9z"/>
        </g>
        <path id="&lt;Path&gt;" class="s4" d="m93.2 310.1q6 12.6 0.7 21.6"/>
        <path id="&lt;Path&gt;" class="s4" d="m97.7 311.6q1.4 6.7-1.6 12"/>
        <path id="&lt;Path&gt;" class="s4" d="m148.4 309.2q-7.1 11.4 2.2 21.8"/>
        <path id="&lt;Path&gt;" class="s4" d="m144.8 311.6q-2 4.8 1 11.1"/>
        <g id="&lt;Group&gt;">
          <path id="&lt;Path&gt;" class="s12" d="m159.6 334.9c-1.8-6.3 3.7-9.7 9.3-8.9 5.5 0.8 7.8 5.9 5.7 9.8-2.6 5.1-13.3 5.5-15-0.9z"/>
          <path id="&lt;Path&gt;" class="s12" d="m172 329.6c3.4 2 4.7 5.4 0.2 9q-7.2 5.9-36 0.5-9 2.9-10.7-0.7-1.7 0.9-3.2 1c-1.8 0.1-5.1-1.7-4.5-2.6 0.5-0.9 3.8-7 6.3-8.1 2.4-1.1 8.7 2.3 14 2.8q5.2 0.5 26.4-3.7" style="fill: rgb(255, 204, 153);"/>
          <path id="&lt;Path&gt;" class="s4" d="m125.5 338.4q0.9-1.8-1.9-2.6-1.1-2.3-0.8-3.5"/>
          <path id="&lt;Path&gt;" class="s4" d="m123.6 335.8q-1.2 1.5-2.7 1.2"/>
          <path id="&lt;Path&gt;" class="s4" d="m136.2 339.1q-0.6-0.7 0-2.7"/>
        </g>
        <g id="&lt;Group&gt;">
          <path id="&lt;Path&gt;" class="s12" d="m72.8 335.6c-1.8-4.1 0.8-8.9 6.4-9.4 5.6-0.4 11 3.3 8.7 9.6-2.2 6.2-12.7 5.1-15.1-0.2z"/>
          <path id="&lt;Path&gt;" class="s12" d="m83.5 328.3q20.8 5.6 26.1 5.4c5.3-0.1 11.8-3.1 14.2-1.8 2.3 1.3 5.2 7.6 5.7 8.5 0.5 0.9-2.9 2.5-4.7 2.3q-1.5-0.2-3.1-1.3-1.9 3.5-10.8 0.1-29 3.5-35.8-2.9c-4.3-4-2.8-7.2 0.7-9" style="fill: rgb(255, 204, 153);"/>
          <path id="&lt;Path&gt;" class="s4" d="m124.7 335.5q0.3 1.3-1 3.5-2.8 0.6-2 2.4"/>
          <path id="&lt;Path&gt;" class="s4" d="m123.7 339q1.2 1.6 2.7 1.4"/>
          <path id="&lt;Path&gt;" class="s4" d="m110.9 341.5q0.7-0.7 0.2-2.8"/>
        </g>
      </g>
      <g id="&lt;Group&gt;">
        <path id="&lt;Path&gt;" class="s15" d="m71.2 346.8l-3.3-0.6q-4.7-2-23.6-2.8l8-5.1c0.9-0.1 8-0.1 14.8-1q4.3-0.6 7.5 2.1 5.3-2.3 7.9-1.2 2.6 1 16.2 2.2l-3.7 6.1q-10-0.4-23.8 0.3z"/>
        <path id="&lt;Path&gt;" class="s6" d="m96.1 340l-2.9 4.9q-11.5-1.9-22.1 0l-1.7 0.6q-7-3.8-20.6-3.5l6.2-4.9q13.1-6.9 19.7 0.1 1.3-1.4 7.5-2.4 6.2-0.9 13.9 5.2z"/>
        <path id="&lt;Path&gt;" class="s4" d="m74.7 337.2l-4.1 6.2q-3.1-2.7-9.4-3.4-6.3-0.6-11.2 2"/>
        <path id="&lt;Path&gt;" class="s6" d="m70.6 343.4q2.9-1.7 9-2.6 6.1-0.9 13.2 3.6"/>
      </g>
    </g>
  </g>
  <g id="Character 3" transform="matrix(1, 0, 0, 1, -1.332425, -45.969349)">
    <g id="&lt;Group&gt;">
      <g id="&lt;Group&gt;">
        <path id="&lt;Path&gt;" class="s5" d="M 466.9 399.1 L 450.911 414.786 L 242.6 439.3 C 242.6 439.3 242.6 439.3 242.6 439.3 L 136.7 437 L 113.4 436.5 L 113.4 399.1 L 466.9 399.1 Z"/>
        <path id="&lt;Path&gt;" class="s16" d="m460.9 399.1c-2.4 5.9-7.6 12.8-18.6 18.6-25.4 13.3-77.1-8.2-108.4-6.8-20.5 0.9-54.4 17.9-91.3 28.4q0 0 0 0c-19.4 5.5-39.7 9.3-59.3 8-18.3-1.2-34.2-4.7-46.6-10.3-10.4-4.6-18.4-10.6-23.3-17.7v-20.2z" style="fill: rgb(103, 138, 87);"/>
        <path id="Shape 6" class="s17" d="m-143 440"/>
        <path id="&lt;Path&gt;" class="s6" d="m113.4 399.1v45"/>
        <path id="&lt;Path&gt;" class="s6" d="m469.6 401h-361.6v-8.4l20-21.6h340.4"/>
        <path id="&lt;Path&gt;" class="s6" d="m112.2 392.6h369"/>
        <path id="&lt;Path&gt;" class="s6" d="m398 377.8l5 9.7h-44.8v-8.6z"/>
        <path id="&lt;Path&gt;" class="s6" d="m406.8 378.9l29.1-3.7 21 7.4-26.7 6.6z"/>
      </g>
      <g id="&lt;Group&gt;">
        <g id="&lt;Clip Group&gt;" clip-path="url(#cp1)">
          <path id="&lt;Path&gt;" class="s9" d="m411.2 372.2q-0.6 0.6-1.7 1.3c-3 0-7.4-0.5-9.6-0.8q-3.3-0.5-4.2-1.4l-55.3-0.2c-3.6-2.4-6.1-5.2-6.5-8.1-1.5-10.1-8.6-11.4-15-10.5q2.1-6.1 6.9-5.8 4.9 0.3 9.2 5.8c-0.7-7.4-10.3-19.2-7.4-18.6 2.9 0.6 9.6 8.4 9.9 8.8-0.2-0.4-4.4-9.2-0.7-8.8q3.6 0.4 7 14.3 12.2 7.4 20.1 8.4 8 1.1 27.8-9.9l0.9 7.4q10.7-6.9 15.7-3.6c5 3.3 5.8 18 2.9 21.7z"/>
          <path id="&lt;Path&gt;" class="s9" d="m364.2 340.5q-2.6-4.3-13-9.5l-5.4 3.1q-12.4-9.7-4.2-22.9c3.4-4.2 36-6.7 42.4 0 6.4 6.6 5.7 15.5 2.9 21.6l-6.9-3q-10 2.9-12.5 10.7"/>
          <path id="&lt;Path&gt;" class="s6" d="m412.3 373.3c-0.5 0.2-1.5 0.2-2.8 0.2-3 0-7.4-0.5-9.6-0.8q-3.3-0.5-4.2-1.4l-55.3-0.2h-6.5q-0.8 4.1-5.8 4.8c-3.9 0.6-13.9-1.2-15.3-2.6-4.3-4.6-2.9-15.8 0.4-17.3q4.9-15.2 9.9-26.3c5.3-11.8 20.5-25.5 40.1-27.7 19.7-2.3 38.6 19.8 45.1 30.9q6.5 11 9.8 21 2.6 2.5 3.1 5.2c0.9 5.5 0 11.3-8.9 14.2z" style="fill: rgb(245, 241, 4);"/>
        </g>
        <path id="&lt;Path&gt;" class="s11" d="m346.4 326.1l8.9 1.2q2.9 7.8 9.9 10.9 4.1-1 12.3-14.4-0.1 1.3 3.9 0.9-4.2 9.2-12.2 14.2 2.2 1.4 7.1 10.4-6.1 0.2-11.3-7.7-1.8 4.8-8.5 8.9-0.2-6.3 4.2-12.3-7.5-2.3-14.3-12.1z" style="fill: rgb(0, 255, 76);"/>
        <path id="Shape 2" class="s11" d="m-284 331"/>
        <path id="&lt;Path&gt;" class="s6" d="m363.9 336.7q-2.3-4.3-11.6-9.4l-4.8 3q-11-9.7-3.7-22.9c3-4.2 32.1-6.7 37.8 0 5.7 6.6 5 15.5 2.5 21.6l-6.2-3q-8.9 2.9-11.1 10.7"/>
        <path id="&lt;Path&gt;" class="s4" d="m325.8 332.5q10.7 7.2 14.1 18.1 3.4 10.8 1.5 19"/>
        <path id="&lt;Path&gt;" class="s4" d="m337.5 338.2q4 6.1 3.6 16.8"/>
        <path id="&lt;Path&gt;" class="s4" d="m403 329.7q-16.4 13.3-7.3 41.6"/>
        <path id="&lt;Path&gt;" class="s4" d="m395.7 335.6q-3.9 13.8-1.8 19.4"/>
        <path id="&lt;Path&gt;" class="s6" d="m352.3 321q25.1-6.7 21.7 1-3.5 7.7-9.3 11.9-6.1-3.3-13-12.9" style="fill: rgb(255, 204, 153);"/>
        <g id="&lt;Group&gt;">
          <path id="&lt;Path&gt;" class="s6" d="m387.3 290.5q2.9-1.8 4.1-0.3c1.1 1.6-0.7 10.6-1.1 11.6-0.4 1-0.7 0.4-2.2 3.6-1.5 3.2-2.4 1.9-2.5 0.2" style="fill: rgb(255, 204, 153);"/>
          <path id="&lt;Path&gt;" class="s6" d="m342.7 308c0.1 1.7-0.6 3.1-2.5 0.1-1.9-3-2.1-2.5-2.6-3.4-0.6-0.9-3.3-9.7-2.4-11.3q1-1.7 4.1-0.3" style="fill: rgb(255, 204, 153);"/>
          <path id="&lt;Path&gt;" class="s6" d="m361.9 267.6c18.7-1.1 23.4 14.4 24.5 29.6 1.7 24.6-9.3 25-21.7 25.7-12.8 0.8-21.4 4-24.5-23.9-1.6-14.9 3.4-30.4 21.7-31.4z" style="fill: rgb(255, 204, 153);"/>
          <path id="&lt;Path&gt;" class="s4" d="m357.1 292.2q-5-2.5-9.6 3.6"/>
          <path id="&lt;Path&gt;" class="s4" d="m368.8 291.1q5.5-2.4 10.4 3"/>
          <ellipse id="&lt;Path&gt;" class="s13" cx="354" cy="300.2" rx="1.8" ry="2.7"/>
          <ellipse id="&lt;Path&gt;" class="s13" cx="372.6" cy="299.2" rx="1.8" ry="2.7"/>
          <path id="&lt;Path&gt;" class="s4" d="m382.5 303.9q2.4-1.2 5-8.4"/>
          <path id="&lt;Path&gt;" class="s4" d="m345.5 306q-3.8-1.4-5.3-7"/>
          <path id="&lt;Path&gt;" class="s14" d="m343.8 305.2q15.5-1.3 19.4-1.7 3.9-0.5 20.9-0.6-0.4 14.5-3.3 18.1c-5.8 7-23.8 8.7-32.2 2q-2.1-1.7-4.8-17.8z"/>
          <path id="&lt;Path&gt;" class="s13" d="m372.6 279.9q-0.1 6.9-12.4 12.4 2.7-1.7 3.7-7.8-11 6.1-16.4 7.2-5.3 1.1-5.3 1.1l-2 11.1q-4.7-13.8-5.2-22.1c-0.5-8.3 3.7-21.5 21.2-24.2q17.5-2.7 27.9 7.7 11.4 4.6 2.5 34.9-1.5-5.9-4.1-10.6-2.5-4.7-9.9-9.7z"/>
        </g>
        <g id="&lt;Group&gt;">
          <path id="&lt;Path&gt;" class="s6" d="m312.8 370.5c-3-5.6 0.3-12.7 8-13.8 7.8-1.1 15.6 3.5 13.1 12.5-2.5 9-17.4 8.4-21.1 1.3z" style="fill: rgb(255, 204, 153);"/>
          <path id="&lt;Path&gt;" class="s6" d="m326.9 359.2q29.7 5.8 37.1 5.1c7.4-0.7 16.2-5.4 19.6-3.8 3.4 1.5 8.1 10.1 8.9 11.3 0.7 1.2-3.9 3.8-6.4 3.6q-2.1-0.1-4.5-1.4-2.4 5-15 1.1-40.3 7.5-50.4-0.7c-6.4-5.2-4.6-9.9 0.2-12.7" style="fill: rgb(255, 204, 153);"/>
          <path id="&lt;Path&gt;" class="s4" d="m385.3 365.5q0.5 1.7-1 5-3.9 1.1-2.7 3.5"/>
          <path id="&lt;Path&gt;" class="s4" d="m384.3 370.5q1.7 2.1 3.8 1.6"/>
          <path id="&lt;Path&gt;" class="s4" d="m366.6 375.1q0.8-1.1 0-3.9" style="fill: rgb(188, 162, 57);"/>
        </g>
        <g id="&lt;Group&gt;">
          <path id="&lt;Path&gt;" class="s6" d="m409.5 352.8q3.5-1.3 7.3 1.7c3.8 2.9 7.8 18.1-3.6 21.2-11.5 3.2-17.3-21.2-3.7-22.9z" style="fill: rgb(255, 204, 153);"/>
          <path id="&lt;Path&gt;" class="s6" d="m416.8 369.1c-0.8 5.5-4.5 8.9-11.6 4.9-11.3-6.3-20.7-45.3-20.9-46.6l10.5-4.6q3.6 8.8 20.5 35.6" style="fill: rgb(255, 204, 153);"/>
          <path id="&lt;Path&gt;" class="s6" d="m386.2 328.8q-4.6-0.4-6-3.9-1.4-3.5 5-12.4-1.3-6.1 0.4-6.9c1.7-0.9 6.2-4.1 7.7-3.1 1.5 1 3 4.2 3.3 7.9q0.2 3.8-2.1 14.6" style="fill: rgb(255, 204, 153);"/>
          <path id="&lt;Path&gt;" class="s6" d="m385.2 312.5q2.9-2.5 4.8-2.6" style="fill: rgb(255, 204, 153);"/>
          <path id="&lt;Path&gt;" class="s6" d="m388.3 310.4q0.5-2.9 0.4-3.9"/>
        </g>
        <g id="&lt;Group&gt;" style="opacity: .2">
          <path id="&lt;Path&gt;" class="s18" d="m372.6 264.9q1.4 10.9-6 19.6"/>
          <path id="&lt;Path&gt;" class="s18" d="m368.8 264.6q-3.2 16.4-21.3 19.9"/>
          <path id="&lt;Path&gt;" class="s18" d="m363.7 264.6q-3.5 13-19.9 12"/>
          <path id="&lt;Path&gt;" class="s18" d="m377.5 274.7q6.1 5 7.9 10.4"/>
          <path id="&lt;Path&gt;" class="s18" d="m377.5 270.1q4.5 0.2 6.6 1.7"/>
        </g>
      </g>
    </g>
  </g>
  <g id="Character 2" transform="matrix(0.939997, 0, 0, 0.952589, 9.841831, -32.859428)" style="">
    <g id="&lt;Group&gt;">
      <path id="&lt;Path&gt;" class="s5" d="m378.6 487.3h-260.4c-34.7 0-62.9-28.2-62.9-62.9h386.3c0 34.7-28.2 62.9-63 62.9z"/>
      <path id="&lt;Path&gt;" class="s6" d="m266.5 315.4l11.6-25.8q0.9-8.7 3.3-16.2c2.3-7.5 8.6-37.5 7.8-51.3q-0.7-13.8 17.4 3.2-1.2 54-3.2 61.5-1.9 7.5-19.3 77.8" style="fill: rgb(255, 204, 153);"/>
      <g id="&lt;Clip Group&gt;" clip-path="url(#cp2)">
        <path id="&lt;Path&gt;" class="s9" d="m292.9 333.6l-0.5 0.7q-4.4 45-13.5 63.2c-6-7.6-4.3-26-2.9-28.8q1.9-4 6.6 1-3.9-14.5-4.4-18.7c-0.6-4.2 4.1 2.2 6.9 4.5 2.7 2.2 3.4-12.6 2.1-17-1.3-4.5-17.6-25.8-12.4-23.4 3.8 1.8 13.3 12.8 18.1 18.5z"/>
        <path id="&lt;Path&gt;" class="s6" d="m295.8 329.8l-2.9 3.8-0.5 0.7q-4.4 45-13.5 63.2-0.7 1.3-1.4 2.5-10 16.1-23.8-69 4.6-16.6 12.5-19.7l3.4-9.3q24.4 19.5 26.2 27.8z" style="fill: rgb(237, 88, 225);"/>
      </g>
      <g id="&lt;Clip Group&gt;" clip-path="url(#cp3)">
        <path id="&lt;Path&gt;" class="s9" d="m284.9 425.6h-106.6c2.8-14.8 10.2-27.1 15.2-25.8 8 2 10.8 16.6 15.1 20.8 4.3 4.1 12.8-1.7 25.6-4.9 12.8-3.2 24.9 6.9 31.8 5.9 4.1-0.6 12.6-6.1 19-10.6q0.2 7-0.1 14.6z"/>
        <path id="&lt;Path&gt;" class="s9" d="m222 352.5c7.4-2.7 13.8-11.1 17.9-11.1q9.7 0.2 20.5 12.1-12-1.1-17.9 4.2-6 5.2-11.4 25.6-23.2-12.3-27.5-12-4.3 0.3-11.3 3.8 2.2-13.2 8.4-15.9 10.9-2.8 21.3-6.7z"/>
        <path id="&lt;Path&gt;" class="s6" d="m276.7 362.3c4.4 12.8 7.8 29 8.3 48.7q0.2 7-0.1 14.6h-107.7l-0.1-50.5q12.2-19.6 39.7-25.5 21.2-4.5 39.1-24.8 1.5 1.6 3.9 4.7" style="fill: rgb(237, 88, 225);"/>
      </g>
      <path id="&lt;Path&gt;" class="s6" d="m220.9 375.1q-16.3-11.1-19.9-9.9-3.5 1.1-11.6 9.9-2.6-18.1 18-30.3c10-5.9 34.1-19.6 50 5.9q-9.1-5.8-12.6-5.4-3.5 0.4-11 22.4"/>
      <path id="&lt;Path&gt;" class="s6" d="m235.4 348.5q-1.5 12.8-10.4 21.9-18.1-4.4-21.3-16.3 0.4-0.4 0.8-1.2c1-1.8 2.1-6.1-0.9-14.7q-1.1-3-2.9-6.7l32.3-5.5c-1.8 4.3-1.9 8.6-1.4 12.2 0.3 1.4 0.6 2.6 0.9 3.8q1.2 3.9 2.9 6.5z" style="fill: rgb(255, 204, 153);"/>
      <g id="&lt;Group&gt;">
        <path id="&lt;Compound Path&gt;" fill-rule="evenodd" class="s11" d="m245.9 382.7q-3.3-0.4-16.2-5.6 6.1 8.5 7.8 14.5l-2.6 3.8q-3.1-11.2-7.2-16.4l-3.1 20.8h-4.7l4.7-20.2q-5.5 10.2-9.8 11.2c-4.3 1-8.1-6.9-8.8-10.4q-0.7-3.6 20.6-8.6 18.7-6.8 20.6-4.5c1.9 2.2 1.9 15.8-1.3 15.4zm-23.9-6q-11 3-10.5 5.1c0.5 2.2 1 3.9 2.4 3.6q1.4-0.3 8.1-8.7zm22.4-5.4q-0.4-1.4-13.7 2.4 11.9 3.7 13.2 2.8c1.4-0.8 1-3.7 0.5-5.2z" style="fill: rgb(0, 255, 4);"/>
        <path id="Shape 1" class="s11" d="m-269 368"/>
        <path id="&lt;Path&gt;" class="s15" d="m225.1 377.8l-2.2-5q3.7-2.6 6.1-1.8l-0.5 4.8"/>
      </g>
      <g id="&lt;Group&gt;">
        <path id="&lt;Path&gt;" class="s6" d="m295.9 228c-0.9 0.2-10.5-2.6-11.6-10.4q-1.1-7.7-7.9-17.8 1.7-3.8 5.4-1.8c2 1.1 3 6.2 8.1 8.4q1.5-4.2 2.2-11c0.7-6.9 1.3-15.7 4-16.4 2.6-0.6 2.9 1.3 2.9 2.9 0 1.5-0.9 11.9 0 13.5 0.8 1.5 4.8-15.7 5.9-16.5q2.8-2.1 4.2 1.7-3.7 16.5-3.3 17.9c0.4 1.3 5.7-10.6 6-12.2 0.2-1.5 3.2-0.6 3.3 2.2 0 2.2-5.3 14.6-4.9 15.9 0.5 1.3 4-7.8 5-8.4 1-0.7 3.4 0.4 1.4 6.7-1.1 3.3-3 9.2-4.1 15.4-1.1 6.2-6.2 10.4-10.4 9.9" style="fill: rgb(255, 204, 153);"/>
        <path id="&lt;Path&gt;" class="s4" d="m289.9 206.4c2.6 1 6.9 3.2 8.2 7.6"/>
        <path id="&lt;Path&gt;" class="s4" d="m295.4 195.3q11.8 0.1 16 11.7"/>
      </g>
      <g id="&lt;Clip Group&gt;" clip-path="url(#cp4)">
        <path id="&lt;Path&gt;" class="s9" d="m198.2 425.8l-10.6 3.1c-0.8-1.7-1.3-4.1-1.4-7.3q-0.6-17.7-18.9-21.8c7.1-3.7 15.4 3.3 16.5 5.2-1.3-3.3-3.6-10.4 0.1-9.5q5.7 1.4 11.2 12.2-2.8-17 0.5-14c2.5 7.4 3.8 17.7 2.6 32.1z"/>
        <path id="&lt;Path&gt;" class="s6" d="m194.1 390.1c3.4 7.5 5.6 18.8 4.1 35.7l-17.4 5.1-22.5 4.3q-11.7-23.1 1.5-35.4 3.6-12.5 17.3-24.7 1.6 0.2 3.9 1.1" style="fill: rgb(237, 88, 225);"/>
      </g>
      <path id="&lt;Path&gt;" class="s6" d="m148.7 433.6c-5.3-7 0.7-14 4.4-19.4q3.8-5.5 6.9-10.7 13.2-0.9 20.2 7.3c7 8.2 8.4 14.8 5 20.7-3.3 5.8-27.3 14.5-36.5 2.1z" style="fill: rgb(255, 204, 153);"/>
      <path id="&lt;Path&gt;" class="s13" d="m232.5 342c-5 5.2-15.4 13.9-28 10.9 1-1.8 2.1-6.1-0.9-14.7h28c0.3 1.4 0.6 2.6 0.9 3.8z"/>
      <g id="&lt;Group&gt;">
        <path id="&lt;Path&gt;" class="s6" d="m247.9 290.9q4.1-3.3 6.2-1.2c2.1 2.2 1.1 16.4 0.7 17.9-0.5 1.6-1 0.8-2.7 6-1.7 5.2-3.3 3.4-3.8 0.7" style="fill: rgb(255, 204, 153);"/>
        <path id="&lt;Path&gt;" class="s6" d="m183.2 326.4c0.5 2.7-0.4 5-3.9 0.8-3.4-4.3-3.6-3.4-4.6-4.7-1-1.3-7-14.2-5.8-16.9q1.2-2.8 6.2-1.2" style="fill: rgb(255, 204, 153);"/>
        <path id="&lt;Path&gt;" class="s6" d="m203.8 254.4c28.3-5.2 38.6 17.4 43.3 40.6 7.5 37.2-8.6 44.9-27.5 48.4-19.4 3.6-32.7 5.4-42.9-36.7-5.4-22.5-0.8-47.1 27.1-52.3z" style="fill: rgb(255, 204, 153);"/>
        <path id="&lt;Path&gt;" class="s4" d="m200.4 286.6q-8.1-2.8-13.9 7.4"/>
        <path id="&lt;Path&gt;" class="s4" d="m218.1 282.7q8-4.8 16.5 2.4"/>
        <path id="&lt;Path&gt;" class="s13" d="m200.2 300.6c0.4 2.3-0.5 4.3-2 4.6-1.5 0.3-3-1.3-3.5-3.6-0.4-2.3 0.5-4.4 2-4.7 1.5-0.2 3.1 1.4 3.5 3.7z"/>
        <path id="&lt;Path&gt;" class="s13" d="m228.4 295.3c0.5 2.3-0.4 4.4-1.9 4.7-1.5 0.3-3.1-1.4-3.5-3.7-0.4-2.2 0.4-4.3 1.9-4.6 1.6-0.3 3.1 1.3 3.5 3.6z"/>
        <path id="&lt;Path&gt;" class="s13" d="m248 300.2q-5.4-15.1-7.7-19.8c-2.3-4.6-5.5-7-6.8-9.3-1.3-2.3-3.2-9.6-12.6-10q-2.1 9.3-5.1 12c1.1-2.6 2-6.1 1.9-10.7q-0.4 5.6-3.6 10.5c-1.3 0-3.2 0.1-5.7 0.5q4.4-6.7 3.6-8.1-0.5 1.8-3.2 5c-0.8 1-1.6 2.2-2.4 3.4q-0.9 0.2-1.8 0.4c-4.6 1.1-8.7 2.6-11.8 4.1q0-5.4 2.6-8.9c-3.1 2.1-4.3 6.8-4.7 9.9q-2.6 1.2-4 2.1-1.1 0.7-2.1 1.5c-0.4-3.4-0.6-8.6 0.6-11.6q-4.1 8-4.6 15.6-2 6-2.7 24.6-6.3-11.2-7.4-19.8c-0.1-1.5-7.2-22.1 7.2-32.3 14.4-10.2 32.5-14.3 44.2-8.2q13 1.1 20.9 13.2 8 12.1 5.2 35.9z"/>
        <path id="&lt;Path&gt;" class="s4" d="m242.5 306q3.4-2.4 6-13.9"/>
        <path id="&lt;Path&gt;" class="s4" d="m186.2 316.4q-6-1.3-9.5-9.7"/>
        <path id="&lt;Path&gt;" class="s14" d="m183.5 315.5q22.6-11.4 28.5-12.8 5.8-1.5 32.7 1.4 1.1 25.7-2.8 31.8c-3.8 6.1-29.1 14.1-44 8.8q-3.9-1.4-14.4-29.2z" style="fill: rgb(45, 53, 44);"/>
        <path id="&lt;Path&gt;" class="s13" d="m275.2 282.1q-3.2-7.8-6.9-10.5c2.7 3.7 4.3 9.4 5.3 13.7-1.1 1.7-2.6 3.3-4.8 4.6q-2-5.2-4.8-11 1.4 7 0.4 11.8-6.5-22.2-11.8-24.3-5.3-2.1-13.8 6l-1-1.1-3.6-4.1q10.1-15.7 22.4-16.3c6.9-0.3 12.1 7.9 15.4 15.2q-3.3-4.4-5.9-6.4c3.7 4.1 7.2 10.9 9.3 15.6q0.4 1.2 0.6 1.9 0.1 2.2-0.8 4.9z"/>
        <path id="&lt;Path&gt;" class="s13" d="m144.7 301.6q-0.1-0.8-0.1-2c0.3-5.1 1-12.7 3-17.9q-1.7 2.9-3.1 8.1c0.4-8 2.3-17.5 8.8-19.7q11.7-3.9 26.8 7.1l-1.9 5.2-0.5 1.3q-10.9-4.5-15.1-0.6-4.2 3.8-2.2 27-2.7-4.1-3.9-11.2-0.5 6.3-0.5 12c-2.5-0.5-4.5-1.4-6.1-2.6-0.7-4.4-1.2-10.3 0-14.7q-2.5 3.9-2.7 12.2-1.8-2.2-2.5-4.2z"/>
      </g>
      <path id="&lt;Path&gt;" class="s6" d="m54.2 425.6h386.3"/>
      <g id="&lt;Group&gt;">
        <path id="&lt;Path&gt;" class="s6" d="m169.2 415.7q44.3 8.7 55.3 7.7c11-1 24.2-8.1 29.2-5.7 5.1 2.3 12.1 15 13.2 16.8 1.2 1.9-5.7 5.7-9.5 5.5q-3.1-0.2-6.7-2.2-3.5 7.5-22.4 1.6-60 11.3-75.2-1c-9.4-7.7-6.7-14.7 0.4-18.8" style="fill: rgb(255, 204, 153);"/>
        <path id="&lt;Path&gt;" class="s4" d="m256.3 425.1q0.7 2.6-1.6 7.5-5.8 1.6-4 5.2"/>
        <path id="&lt;Path&gt;" class="s4" d="m254.7 432.6q2.6 3.1 5.8 2.4"/>
        <path id="&lt;Path&gt;" class="s4" d="m228.3 439.4q1.3-1.6 0-5.8"/>
      </g>
      <g id="&lt;Group&gt;" style="opacity: .2">
        <path id="&lt;Path&gt;" class="s18" d="m212.3 253.2q-2 9.7-9.6 16.9"/>
        <path id="&lt;Path&gt;" class="s18" d="m216.5 253.2q0.3 8.4-2.4 14.6"/>
        <path id="&lt;Path&gt;" class="s18" d="m205.4 254.8c-2.8 5.5-14.1 9.9-16.7 19.6"/>
        <path id="&lt;Path&gt;" class="s18" d="m192.2 257.8c-1.4 0.8-13.1 8.3-13.8 18.3"/>
      </g>
      <path id="&lt;Path&gt;" class="s4" d="m260.4 364.6q-5.3 37.7-34.1 53.5"/>
      <path id="&lt;Path&gt;" class="s4" d="m281.8 291.7q2.5 1.4 11.2-3.6"/>
      <g id="&lt;Group&gt;">
        <path id="&lt;Path&gt;" class="s15" d="m279.7 451.8l-9.1-15q33.2-2.8 39.5-5.3 6.3-2.6 19.2 3 7.8-6.5 18.2-5.2c16.4 2.2 33.8 2.2 35.9 2.4l19.6 12.4q-46 1.9-57.5 6.9l-8 1.3q-33.6-1.5-57.8-0.5z"/>
        <path id="&lt;Path&gt;" class="s6" d="m310.8 423.3q15.1 2.3 18.3 5.9 15.8-17.1 47.7-0.5l16.1 13.8q-33-0.7-50.9 6.7l-4.4 1.2q-11.8-4.2-56.2-1.2l-8.4-14q22.6-14.1 37.8-11.9z"/>
        <path id="&lt;Path&gt;" class="s4" d="m388.9 440.7q-11.9-6.3-27.1-4.8-15.2 1.6-22.9 8.2l-9.8-14.9"/>
        <path id="&lt;Path&gt;" class="s6" d="m285.1 446.5q17.1-10.8 31.9-8.7 14.8 2.2 21.9 6.3"/>
        <path id="&lt;Path&gt;" class="s4" d="m381.4 440.7q-18.4-5.7-42.5 5.6-7.1-3.2-19.8-4.3-12.7-1.1-24.4 3.2"/>
        <path id="&lt;Path&gt;" class="s6" d="m334.4 447.6q1.4-2.2 4.5-2.2 3.1 0 3.1 2.2"/>
      </g>
    </g>
  </g>
</svg>